HIERARCHY
ROOT Hips
{
	OFFSET -3.958830 18.904000 13.208200
	CHANNELS 6 Xposition Yposition Zposition Zrotation Yrotation Xrotation 
	JOINT LHipJoint
	{
		OFFSET 0.000000 0.000000 0.000000
		CHANNELS 3 Zrotation Yrotation Xrotation
		JOINT LeftUpLeg
		{
			OFFSET 1.800000 -1.400000 0.085000
			CHANNELS 3 Zrotation Yrotation Xrotation
			JOINT LeftLeg
			{
				OFFSET 2.215000 -6.000000 0.000000
				CHANNELS 3 Zrotation Yrotation Xrotation
				JOINT LeftFoot
				{
					OFFSET 2.500000 -6.900000 0.000000
					CHANNELS 3 Zrotation Yrotation Xrotation
					JOINT LeftToeBase
					{
						OFFSET 0.200000 -0.500000 1.950000
						CHANNELS 3 Zrotation Yrotation Xrotation
						End Site
						{
							OFFSET 0.000000 0.000000 0.000000
						}
					}
				}
			}
		}
	}
	JOINT RHipJoint
	{
		OFFSET 0.000000 0.000000 0.000000
		CHANNELS 3 Zrotation Yrotation Xrotation
		JOINT RightUpLeg
		{
			OFFSET -1.800000 -1.400000 0.085000
			CHANNELS 3 Zrotation Yrotation Xrotation
			JOINT RightLeg
			{
				OFFSET -2.215000 -6.000000 0.000000
				CHANNELS 3 Zrotation Yrotation Xrotation
				JOINT RightFoot
				{
					OFFSET -2.500000 -6.900000 0.000000
					CHANNELS 3 Zrotation Yrotation Xrotation
					JOINT RightToeBase
					{
						OFFSET -0.200000 -0.500000 1.950000
						CHANNELS 3 Zrotation Yrotation Xrotation
						End Site
						{
							OFFSET 0.000000 0.000000 0.000000
						}
					}
				}
			}
		}
	}
	JOINT LowerBack
	{
		OFFSET 0.000000 0.000000 0.000000
		CHANNELS 3 Zrotation Yrotation Xrotation
		JOINT Spine
		{
			OFFSET -0.087000 1.940000 -0.288900
			CHANNELS 3 Zrotation Yrotation Xrotation
			JOINT Spine1
			{
				OFFSET 0.000000 1.950000 0.060000
				CHANNELS 3 Zrotation Yrotation Xrotation
				JOINT Neck
				{
					OFFSET 0.000000 0.000000 0.000000
					CHANNELS 3 Zrotation Yrotation Xrotation
					JOINT Neck1
					{
						OFFSET 0.000000 1.600000 0.340000
						CHANNELS 3 Zrotation Yrotation Xrotation
						JOINT Head
						{
							OFFSET 0.000000 1.667000 -0.240000
							CHANNELS 3 Zrotation Yrotation Xrotation
							End Site
							{
								OFFSET 0.000000 0.000000 0.000000
							}
						}
					}
				}
				JOINT LeftShoulder
				{
					OFFSET 0.000000 0.000000 0.000000
					CHANNELS 3 Zrotation Yrotation Xrotation
					JOINT LeftArm
					{
						OFFSET 2.700000 1.550000 -0.730000
						CHANNELS 3 Zrotation Yrotation Xrotation
						JOINT LeftForeArm
						{
							OFFSET 5.450000 0.000000 0.000000
							CHANNELS 3 Zrotation Yrotation Xrotation
							JOINT LeftHand
							{
								OFFSET 3.450000 0.000000 0.000000
								CHANNELS 3 Zrotation Yrotation Xrotation
								JOINT LeftHandIndex1
								{
									OFFSET 0.750000 0.000000 0.000000
									CHANNELS 3 Zrotation Yrotation Xrotation
									End Site
									{
										OFFSET 0.000000 0.000000 0.000000
									}
								}
							}
						}
					}
				}
				JOINT RightShoulder
				{
					OFFSET 0.000000 0.000000 0.000000
					CHANNELS 3 Zrotation Yrotation Xrotation
					JOINT RightArm
					{
						OFFSET -2.700000 1.550000 -0.730000
						CHANNELS 3 Zrotation Yrotation Xrotation
						JOINT RightForeArm
						{
							OFFSET -5.450000 0.000000 0.000000
							CHANNELS 3 Zrotation Yrotation Xrotation
							JOINT RightHand
							{
								OFFSET -3.450000 0.000000 0.000000
								CHANNELS 3 Zrotation Yrotation Xrotation
								JOINT RightHandIndex1
								{
									OFFSET -0.750000 0.000000 0.000000
									CHANNELS 3 Zrotation Yrotation Xrotation
									End Site
									{
										OFFSET 0.000000 0.000000 0.000000
									}
								}
							}
						}
					}
				}
			}
		}
	}
}
MOTION
Frames: 4
Frame Time: 0.016667
0.972240 16.249240 -2.199370 2.315846 -9.357269 -8.738377 -14.982296 11.621312 3.567634 5.179324 -9.494687 -18.414927 -14.046069 17.357368 53.402178 0.481026 11.851131 0.803570 0.165770 -0.303940 -0.091470 18.868323 -8.806958 4.352977 -10.360687 5.219418 -54.289898 -2.308057 -10.185524 53.577327 -0.919122 -7.893042 1.953030 -0.016570 0.683000 0.035080 -4.778991 -1.927678 -8.500656 26.092382 -20.363876 34.533325 -17.094074 -11.224575 -2.172512 3.717934 -11.685381 -11.097973 -28.575631 14.497318 31.934746 -7.315570 4.224930 -14.813320 -31.784458 -15.788977 3.262949 -28.942941 -4.418366 -5.298396 -11.471683 -22.568688 -0.213657 -3.668882 2.442628 1.027150 0.247690 -0.279420 0.278360 23.710750 18.169004 8.239132 42.444898 -0.248523 -15.731480 31.091143 48.593348 8.172112 1.500758 -1.152497 -0.694240 0.769410 0.352850 -0.348190 
0.972100 16.246760 -2.116600 1.780800 -9.677081 -12.675736 -14.945461 11.777948 3.174310 6.050817 -7.371952 -14.398803 -12.702379 18.154896 54.435994 0.613830 11.936559 0.728024 0.318440 -0.112180 0.020150 18.897706 -8.804345 4.529374 -13.093841 7.104287 -52.104233 -1.200045 -13.153508 65.151005 -1.537657 -10.069229 1.293198 0.042190 0.500710 0.008010 -4.874640 -1.859892 -8.481403 28.282188 -20.606251 34.149197 -17.692161 -11.506845 -0.139950 4.067813 -11.375980 -12.752330 -31.840477 16.770473 38.295412 -6.396530 3.076590 -15.500380 -32.168649 -17.908203 5.338217 -29.875890 -1.959591 -3.927078 -5.528290 -16.217304 -1.155100 -3.523064 2.393721 1.062690 0.109720 -0.158710 0.283460 23.517292 20.569048 8.277964 45.196158 4.159060 -15.661044 36.294141 54.043635 11.355979 1.589850 -1.211319 -0.588180 0.722050 0.243420 -0.341630 
0.917310 16.224310 -2.068090 1.946556 -9.675255 -16.669555 -14.961297 12.040215 2.918522 7.527660 -5.418215 -10.663079 -11.837751 19.258755 55.277497 0.727497 12.148624 0.620938 0.411360 0.000970 0.102550 18.851047 -8.738583 4.636706 -15.394556 9.223247 -48.786535 0.429306 -16.840750 75.409725 -2.168725 -12.070655 0.743632 0.075310 0.374420 0.003290 -4.768154 -2.152124 -8.510285 27.747913 -19.007379 34.173795 -15.973421 -11.120857 2.439083 4.119655 -10.379225 -14.789927 -33.286853 19.028181 46.012124 -5.521020 2.362240 -15.651770 -31.467758 -20.562537 7.659539 -30.487459 0.963630 -3.394280 -2.254834 -14.311426 -1.423631 -3.413086 2.374168 1.118700 0.010690 -0.052910 0.272750 23.144075 23.472346 8.766469 46.916235 7.854827 -15.576028 36.179235 57.672379 12.063987 1.612888 -1.205558 -0.524480 0.702620 0.190820 -0.347510 
0.871460 16.206790 -2.008800 1.844672 -8.319137 -19.913887 -14.973277 12.293280 2.725253 8.489793 -3.998214 -7.570617 -10.202407 19.694567 56.636466 0.735334 12.437317 0.513139 0.382840 -0.070850 0.104040 18.798376 -8.797836 4.548629 -17.961067 10.119604 -43.646056 3.414151 -22.083351 82.264364 -2.653876 -13.791459 0.329684 0.050150 0.381270 0.013010 -4.654597 -2.423349 -8.413377 28.353046 -17.444640 32.414999 -13.854215 -11.215079 5.597676 3.897041 -9.846274 -16.204515 -34.644909 21.043071 51.406922 -6.273210 1.494300 -13.695670 -30.055150 -22.167445 9.518904 -30.602288 3.259973 -3.348792 -0.568816 -15.987182 -1.652291 -3.422195 2.336092 1.162700 0.019190 -0.066990 0.227130 22.642738 25.171369 9.370143 47.211892 11.464302 -14.008934 44.832275 66.754952 19.609870 1.619486 -1.214264 -0.549030 0.720550 0.258110 -0.379790 
